<svg width="719" height="709" viewBox="0 0 719 709" fill="none" xmlns="http://www.w3.org/2000/svg">
<path d="M543.1 512C540.1 512.067 537.1 512.167 534.1 512.3C531.833 514.3 529.633 516.367 527.5 518.5C525.367 520.633 523.3 522.833 521.3 525.1C521.167 528.1 521.067 531.1 521 534.1C521.067 537.1 521.167 540.1 521.3 543.1C523.3 545.367 525.367 547.567 527.5 549.7C529.633 551.767 531.833 553.8 534.1 555.8C537.1 556 540.1 556.1 543.1 556.1C546.1 556.1 549.1 556 552.1 555.8C554.367 553.8 556.567 551.767 558.7 549.7C560.767 547.567 562.8 545.367 564.8 543.1C565 540.1 565.1 537.1 565.1 534.1C565.1 531.1 565 528.1 564.8 525.1C562.8 522.833 560.767 520.633 558.7 518.5C556.567 516.367 554.367 514.3 552.1 512.3C549.1 512.167 546.1 512.067 543.1 512Z" fill="#C17B2A"/>
<path d="M543.1 398C499 398 524 470.7 531.3 491.4C533.3 497.1 538.3 499.3 543 498.9C543.067 498.9 543.1 498.9 543.1 498.9C547.9 499.3 552.8 497.1 554.8 491.4C562.2 470.7 587.1 398 543.1 398Z" fill="#4A7C59"/>
<path d="M639.3 437.9C608.2 406.7 574.4 475.8 564.9 495.6C562.3 501 564.3 506.1 567.9 509.2C567.9 509.267 567.933 509.3 568 509.3C571.1 512.9 576.1 514.8 581.6 512.2C601.4 502.7 670.5 469 639.3 437.9Z" fill="#4A7C59"/>
<path d="M679.2 534.1C679.2 490 606.5 515 585.7 522.3C580.1 524.3 577.9 529.3 578.2 534C578.2 534.067 578.2 534.1 578.2 534.1C577.9 538.9 580.1 543.8 585.7 545.8C606.5 553.2 679.2 578.1 679.2 534.1Z" fill="#4A7C59"/>
<path d="M639.3 630.3C670.5 599.2 601.4 565.4 581.6 555.9C576.1 553.3 571.1 555.3 568 558.9C567.933 558.9 567.9 558.9 567.9 558.9C567.9 558.9 567.9 558.934 567.9 559C564.3 562.1 562.3 567.1 564.9 572.6C574.4 592.4 608.2 661.5 639.3 630.3Z" fill="#4A7C59"/>
<path d="M543.1 670.2C587.1 670.2 562.2 597.5 554.8 576.7C552.8 571.1 547.9 568.9 543.1 569.2C543.1 569.2 543.067 569.2 543 569.2C538.3 568.9 533.3 571.1 531.3 576.7C524 597.5 499 670.2 543.1 670.2Z" fill="#4A7C59"/>
<path d="M446.9 630.3C478 661.5 511.7 592.4 521.2 572.6C523.8 567.1 521.9 562.1 518.3 559C518.3 558.934 518.267 558.9 518.2 558.9C515.1 555.3 510 553.3 504.6 555.9C484.8 565.4 415.7 599.2 446.9 630.3Z" fill="#4A7C59"/>
<path d="M407 534.1C407 578.1 479.7 553.2 500.4 545.8C506.1 543.8 508.3 538.9 507.9 534.1C507.9 534.1 507.9 534.067 507.9 534C508.3 529.3 506.1 524.3 500.4 522.3C479.7 515 407 490 407 534.1Z" fill="#4A7C59"/>
<path d="M446.9 437.9C415.7 469 484.8 502.7 504.6 512.2C510 514.8 515.1 512.9 518.2 509.3C518.2 509.3 518.2 509.267 518.2 509.2C518.267 509.2 518.3 509.2 518.3 509.2C521.9 506.1 523.8 501 521.2 495.6C511.7 475.8 478 406.7 446.9 437.9Z" fill="#4A7C59"/>
<path fill-rule="evenodd" clip-rule="evenodd" d="M565.9 237.9C567.7 243.7 567.4 249.2 565.7 254.3C570.8 252.6 576.3 252.3 582.1 254.1C591.3 256.8 596.9 267.3 598.8 276.5C596.9 285.7 591.3 296.2 582.1 298.9C576.3 300.7 570.8 300.4 565.7 298.7C567.4 303.8 567.7 309.3 565.9 315.1C563.2 324.3 552.7 329.9 543.5 331.8C534.3 329.9 523.8 324.3 521.1 315.1C519.3 309.3 519.6 303.8 521.3 298.7C516.2 300.4 510.7 300.7 504.9 298.9C495.7 296.2 490.1 285.7 488.2 276.5C490.1 267.3 495.7 256.8 504.9 254.1C510.7 252.3 516.2 252.6 521.3 254.3C519.6 249.2 519.3 243.7 521.1 237.9C523.8 228.7 534.3 223.1 543.5 221.2C552.7 223.1 563.2 228.7 565.9 237.9ZM558 241.4C556.2 234.9 550.1 230.7 543.5 228.5C536.9 230.7 530.8 234.9 529 241.4C525.6 253.9 533.4 264.4 543.5 272.1C553.6 264.4 561.4 253.9 558 241.4ZM508.4 262C501.9 263.8 497.7 269.9 495.5 276.5C497.7 283.1 501.9 289.2 508.4 291C520.9 294.4 531.4 286.6 539.1 276.5C531.4 266.4 520.9 258.6 508.4 262ZM529 311.6C530.8 318.1 536.9 322.3 543.5 324.5C550.1 322.3 556.2 318.1 558 311.6C561.4 299.1 553.6 288.6 543.5 280.9C533.4 288.6 525.6 299.1 529 311.6ZM578.6 291C585.1 289.2 589.3 283.1 591.5 276.5C589.3 269.9 585.1 263.8 578.6 262C566.1 258.6 555.6 266.4 547.9 276.5C555.6 286.6 566.1 294.4 578.6 291ZM548.1 244.2C550 249.2 546.8 255.2 543.5 259C540.2 255.2 537 249.2 538.9 244.2C539.7 242 541.4 240.3 543.5 239.1C545.6 240.3 547.3 242 548.1 244.2ZM511.2 271.9C516.2 270 522.2 273.2 526 276.5C522.2 279.8 516.2 283 511.2 281.1C509 280.3 507.3 278.6 506.1 276.5C507.3 274.4 509 272.7 511.2 271.9ZM538.9 308.8C537 303.8 540.2 297.8 543.5 294C546.8 297.8 550 303.8 548.1 308.8C547.3 311 545.6 312.7 543.5 313.9C541.4 312.7 539.7 311 538.9 308.8ZM575.8 281.1C570.8 283 564.8 279.8 561 276.5C564.8 273.2 570.8 270 575.8 271.9C578 272.7 579.7 274.4 580.9 276.5C579.7 278.6 578 280.3 575.8 281.1Z" fill="#C17B2A"/>
<path fill-rule="evenodd" clip-rule="evenodd" d="M553.4 195.7C556.9 201.2 557.7 208.2 551.9 212.3C549.4 214.1 546.5 215.1 543.5 215.7C540.5 215.1 537.6 214.1 535.1 212.3C529.3 208.2 530.1 201.2 533.6 195.7C536.1 192.1 539.6 189.4 543.5 189C547.4 189.4 550.9 192.1 553.4 195.7ZM624.3 286.4C618.8 289.9 611.8 290.7 607.7 284.9C605.9 282.4 604.9 279.5 604.3 276.5C604.9 273.5 605.9 270.6 607.7 268.1C611.8 262.3 618.8 263.1 624.3 266.6C627.9 269.1 630.6 272.6 631 276.5C630.6 280.4 627.9 283.9 624.3 286.4ZM533.6 357.3C530.1 351.8 529.3 344.8 535.1 340.7C537.6 338.9 540.5 337.9 543.5 337.3C546.5 337.9 549.4 338.9 551.9 340.7C557.7 344.8 556.9 351.8 553.4 357.3C550.9 360.9 547.4 363.6 543.5 364C539.6 363.6 536.1 360.9 533.6 357.3ZM462.7 266.6C468.2 263.1 475.2 262.3 479.3 268.1C481.1 270.6 482.1 273.5 482.7 276.5C482.1 279.5 481.1 282.4 479.3 284.9C475.2 290.7 468.2 289.9 462.7 286.4C459.1 283.9 456.4 280.4 456 276.5C456.4 272.6 459.1 269.1 462.7 266.6ZM548.6 198.5C546.9 196.1 545.2 195 543.5 194.8C541.8 195 540.1 196.1 538.4 198.5C534.2 205.2 537.9 208.3 543.5 209.7C549.1 208.3 552.8 205.2 548.6 198.5ZM621.5 281.6C623.9 279.9 625 278.2 625.2 276.5C625 274.8 623.9 273.1 621.5 271.4C614.8 267.2 611.7 270.9 610.3 276.5C611.7 282.1 614.8 285.8 621.5 281.6ZM538.4 354.5C540.1 356.9 541.8 358 543.5 358.2C545.2 358 546.9 356.9 548.6 354.5C552.8 347.8 549.1 344.7 543.5 343.3C537.9 344.7 534.2 347.8 538.4 354.5ZM465.5 271.4C463.1 273.1 462 274.8 461.8 276.5C462 278.2 463.1 279.9 465.5 281.6C472.2 285.8 475.3 282.1 476.7 276.5C475.3 270.9 472.2 267.2 465.5 271.4Z" fill="#4A7C59"/>
<path fill-rule="evenodd" clip-rule="evenodd" d="M545.7 198.5C545.833 198.567 545.967 198.633 546.1 198.7C546.233 198.7 546.333 198.7 546.4 198.7C546.7 198.9 547 199.2 547.3 199.6C547.367 199.733 547.433 199.867 547.5 200C547.567 200.067 547.6 200.133 547.6 200.2C547.6 200.267 547.633 200.333 547.7 200.4C547.7 200.467 547.7 200.5 547.7 200.5C547.7 200.567 547.7 200.667 547.7 200.8C547.767 200.867 547.8 200.933 547.8 201C547.8 201.067 547.8 201.133 547.8 201.2C547.8 202.9 546.8 204.5 545.4 205.5C544.9 205.9 544.2 206.2 543.5 206.3C542.8 206.2 542.1 205.9 541.6 205.5C540.2 204.5 539.2 202.9 539.2 201.2C539.2 201.133 539.2 201.067 539.2 201C539.2 200.933 539.233 200.867 539.3 200.8C539.3 200.667 539.3 200.567 539.3 200.5C539.3 200.5 539.3 200.467 539.3 200.4C539.367 200.333 539.4 200.267 539.4 200.2C539.4 200.133 539.433 200.067 539.5 200C539.567 199.867 539.633 199.733 539.7 199.6C540 199.2 540.3 198.9 540.6 198.7C540.667 198.7 540.767 198.7 540.9 198.7C541.033 198.633 541.167 198.567 541.3 198.5C542 198.3 542.7 198.2 543.5 198.3C544.3 198.2 545 198.3 545.7 198.5ZM621.5 278.7C621.433 278.833 621.367 278.967 621.3 279.1C621.3 279.233 621.3 279.333 621.3 279.4C621.1 279.7 620.8 280 620.4 280.3C620.267 280.367 620.133 280.433 620 280.5C619.933 280.567 619.867 280.6 619.8 280.6C619.733 280.6 619.667 280.633 619.6 280.7C619.533 280.7 619.5 280.7 619.5 280.7C619.433 280.7 619.333 280.7 619.2 280.7C619.133 280.767 619.067 280.8 619 280.8C618.933 280.8 618.867 280.8 618.8 280.8C617.1 280.8 615.5 279.8 614.5 278.4C614.1 277.9 613.8 277.2 613.7 276.5C613.8 275.8 614.1 275.1 614.5 274.6C615.5 273.2 617.1 272.2 618.8 272.2C618.867 272.2 618.933 272.2 619 272.2C619.067 272.2 619.133 272.233 619.2 272.3C619.333 272.3 619.433 272.3 619.5 272.3C619.5 272.3 619.533 272.3 619.6 272.3C619.667 272.367 619.733 272.4 619.8 272.4C619.867 272.4 619.933 272.433 620 272.5C620.133 272.567 620.267 272.633 620.4 272.7C620.8 273 621.1 273.3 621.3 273.6C621.3 273.667 621.3 273.767 621.3 273.9C621.367 274.033 621.433 274.167 621.5 274.3C621.7 275 621.8 275.7 621.7 276.5C621.8 277.3 621.7 278 621.5 278.7ZM541.3 354.5C541.167 354.433 541.033 354.367 540.9 354.3C540.767 354.3 540.667 354.3 540.6 354.3C540.3 354.1 540 353.8 539.7 353.4C539.633 353.267 539.567 353.133 539.5 353C539.433 352.933 539.4 352.867 539.4 352.8C539.4 352.733 539.367 352.667 539.3 352.6C539.3 352.533 539.3 352.5 539.3 352.5C539.3 352.433 539.3 352.333 539.3 352.2C539.233 352.133 539.2 352.067 539.2 352C539.2 351.933 539.2 351.867 539.2 351.8C539.2 350.1 540.2 348.5 541.6 347.5C542.1 347.1 542.8 346.8 543.5 346.7C544.2 346.8 544.9 347.1 545.4 347.5C546.8 348.5 547.8 350.1 547.8 351.8C547.8 351.867 547.8 351.933 547.8 352C547.8 352.067 547.767 352.133 547.7 352.2C547.7 352.333 547.7 352.433 547.7 352.5C547.7 352.5 547.7 352.533 547.7 352.6C547.633 352.667 547.6 352.733 547.6 352.8C547.6 352.867 547.567 352.933 547.5 353C547.433 353.133 547.367 353.267 547.3 353.4C547 353.8 546.7 354.1 546.4 354.3C546.333 354.3 546.233 354.3 546.1 354.3C545.967 354.367 545.833 354.433 545.7 354.5C545 354.7 544.3 354.8 543.5 354.7C542.7 354.8 542 354.7 541.3 354.5ZM465.5 274.3C465.567 274.167 465.633 274.033 465.7 273.9C465.7 273.767 465.7 273.667 465.7 273.6C465.9 273.3 466.2 273 466.6 272.7C466.733 272.633 466.867 272.567 467 272.5C467.067 272.433 467.133 272.4 467.2 272.4C467.267 272.4 467.333 272.367 467.4 272.3C467.467 272.3 467.5 272.3 467.5 272.3C467.567 272.3 467.667 272.3 467.8 272.3C467.867 272.233 467.933 272.2 468 272.2C468.067 272.2 468.133 272.2 468.2 272.2C469.9 272.2 471.5 273.2 472.5 274.6C472.9 275.1 473.2 275.8 473.3 276.5C473.2 277.2 472.9 277.9 472.5 278.4C471.5 279.8 469.9 280.8 468.2 280.8C468.133 280.8 468.067 280.8 468 280.8C467.933 280.8 467.867 280.767 467.8 280.7C467.667 280.7 467.567 280.7 467.5 280.7C467.5 280.7 467.467 280.7 467.4 280.7C467.333 280.633 467.267 280.6 467.2 280.6C467.133 280.6 467.067 280.567 467 280.5C466.867 280.433 466.733 280.367 466.6 280.3C466.2 280 465.9 279.7 465.7 279.4C465.7 279.333 465.7 279.233 465.7 279.1C465.633 278.967 465.567 278.833 465.5 278.7C465.3 278 465.2 277.3 465.3 276.5C465.2 275.7 465.3 275 465.5 274.3ZM543.2 204C543.2 203.933 543.167 203.9 543.1 203.9C543.1 203.9 543.133 203.933 543.2 204ZM471 276.8C470.933 276.8 470.9 276.833 470.9 276.9C470.9 276.9 470.933 276.867 471 276.8ZM543.8 349C543.8 349.067 543.833 349.1 543.9 349.1C543.9 349.1 543.867 349.067 543.8 349ZM616 276.2C616.067 276.2 616.1 276.167 616.1 276.1C616.1 276.1 616.067 276.133 616 276.2ZM543.9 203.9C543.833 203.9 543.8 203.933 543.8 204C543.867 203.933 543.9 203.9 543.9 203.9ZM470.9 276.1C470.9 276.167 470.933 276.2 471 276.2C470.933 276.133 470.9 276.1 470.9 276.1ZM543.1 349.1C543.167 349.1 543.2 349.067 543.2 349C543.133 349.067 543.1 349.1 543.1 349.1ZM616.1 276.9C616.1 276.833 616.067 276.8 616 276.8C616.067 276.867 616.1 276.9 616.1 276.9Z" fill="#4A7C59"/>
<path fill-rule="evenodd" clip-rule="evenodd" d="M559.8 72.4999C561.1 76.6999 560.9 80.6999 559.6 84.3999C563.3 83.0999 567.3 82.8999 571.5 84.1999C578.2 86.1999 582.3 93.7999 583.6 100.5C582.3 107.2 578.2 114.8 571.5 116.8C567.3 118.1 563.3 117.9 559.6 116.6C560.9 120.3 561.1 124.3 559.8 128.5C557.8 135.2 550.2 139.3 543.5 140.6C536.8 139.3 529.2 135.2 527.2 128.5C525.9 124.3 526.1 120.3 527.4 116.6C523.7 117.9 519.7 118.1 515.5 116.8C508.8 114.8 504.7 107.2 503.4 100.5C504.7 93.7999 508.8 86.1999 515.5 84.1999C519.7 82.8999 523.7 83.0999 527.4 84.3999C526.1 80.6999 525.9 76.6999 527.2 72.4999C529.2 65.7999 536.8 61.6999 543.5 60.3999C550.2 61.6999 557.8 65.7999 559.8 72.4999ZM554 75.0999C552.7 70.2999 548.3 67.2999 543.5 65.6999C538.7 67.2999 534.3 70.2999 533 75.0999C530.5 84.0999 536.2 91.6999 543.5 97.2999C550.8 91.6999 556.5 84.0999 554 75.0999ZM518.1 89.9999C513.3 91.2999 510.3 95.6999 508.7 100.5C510.3 105.3 513.3 109.7 518.1 111C527.1 113.5 534.7 107.8 540.3 100.5C534.7 93.1999 527.1 87.4999 518.1 89.9999ZM533 125.9C534.3 130.7 538.7 133.7 543.5 135.3C548.3 133.7 552.7 130.7 554 125.9C556.5 116.9 550.8 109.3 543.5 103.7C536.2 109.3 530.5 116.9 533 125.9ZM568.9 111C573.7 109.7 576.7 105.3 578.3 100.5C576.7 95.6999 573.7 91.2999 568.9 89.9999C559.9 87.4999 552.3 93.1999 546.7 100.5C552.3 107.8 559.9 113.5 568.9 111ZM546.8 77.0999C548.2 80.6999 545.9 84.9999 543.5 87.7999C541.1 84.9999 538.8 80.6999 540.2 77.0999C540.8 75.4999 542 74.2999 543.5 73.3999C545 74.2999 546.2 75.4999 546.8 77.0999ZM520.1 97.1999C523.7 95.7999 528 98.0999 530.8 100.5C528 102.9 523.7 105.2 520.1 103.8C518.5 103.2 517.3 102 516.4 100.5C517.3 98.9999 518.5 97.7999 520.1 97.1999ZM540.2 123.9C538.8 120.3 541.1 116 543.5 113.2C545.9 116 548.2 120.3 546.8 123.9C546.2 125.5 545 126.7 543.5 127.6C542 126.7 540.8 125.5 540.2 123.9ZM566.9 103.8C563.3 105.2 559 102.9 556.2 100.5C559 98.0999 563.3 95.7999 566.9 97.1999C568.5 97.7999 569.7 98.9999 570.6 100.5C569.7 102 568.5 103.2 566.9 103.8Z" fill="#C17B2A"/>
<path fill-rule="evenodd" clip-rule="evenodd" d="M550.7 41.9C553.2 45.8 553.8 50.9 549.6 53.9C547.8 55.2 545.7 55.9 543.5 56.4C541.3 55.9 539.2 55.2 537.4 53.9C533.2 50.9 533.8 45.8 536.3 41.9C538.1 39.3 540.7 37.3 543.5 37C546.3 37.3 548.9 39.3 550.7 41.9ZM602.1 107.7C598.2 110.2 593.1 110.8 590.1 106.6C588.8 104.8 588.1 102.7 587.6 100.5C588.1 98.3 588.8 96.2 590.1 94.4C593.1 90.2 598.2 90.8 602.1 93.3C604.7 95.1 606.7 97.7 607 100.5C606.7 103.3 604.7 105.9 602.1 107.7ZM536.3 159.1C533.8 155.2 533.2 150.1 537.4 147.1C539.2 145.8 541.3 145.1 543.5 144.6C545.7 145.1 547.8 145.8 549.6 147.1C553.8 150.1 553.2 155.2 550.7 159.1C548.9 161.7 546.3 163.7 543.5 164C540.7 163.7 538.1 161.7 536.3 159.1ZM484.9 93.3C488.8 90.8 493.9 90.2 496.9 94.4C498.2 96.2 498.9 98.3 499.4 100.5C498.9 102.7 498.2 104.8 496.9 106.6C493.9 110.8 488.8 110.2 484.9 107.7C482.3 105.9 480.3 103.3 480 100.5C480.3 97.7 482.3 95.1 484.9 93.3ZM547.2 43.9C545.9 42.1 544.7 41.3 543.5 41.2C542.3 41.3 541.1 42.1 539.8 43.9C536.8 48.8 539.4 51 543.5 52C547.6 51 550.2 48.8 547.2 43.9ZM600.1 104.2C601.9 102.9 602.7 101.7 602.8 100.5C602.7 99.3 601.9 98.1 600.1 96.8C595.2 93.8 593 96.4 592 100.5C593 104.6 595.2 107.2 600.1 104.2ZM539.8 157.1C541.1 158.9 542.3 159.7 543.5 159.8C544.7 159.7 545.9 158.9 547.2 157.1C550.2 152.2 547.6 150 543.5 149C539.4 150 536.8 152.2 539.8 157.1ZM486.9 96.8C485.1 98.1 484.3 99.3 484.2 100.5C484.3 101.7 485.1 102.9 486.9 104.2C491.8 107.2 494 104.6 495 100.5C494 96.4 491.8 93.8 486.9 96.8Z" fill="#4A7C59"/>
<path fill-rule="evenodd" clip-rule="evenodd" d="M545.1 43.9002C545.233 43.9002 545.333 43.9335 545.4 44.0002C545.467 44.0002 545.533 44.0335 545.6 44.1002C545.9 44.2002 546.1 44.4002 546.2 44.7002C546.267 44.7002 546.3 44.7002 546.3 44.7002C546.367 44.8335 546.4 44.9335 546.4 45.0002C546.4 45.0669 546.433 45.1002 546.5 45.1002C546.5 45.1669 546.5 45.2335 546.5 45.3002C546.5 45.3002 546.5 45.3335 546.5 45.4002C546.567 45.4669 546.6 45.5002 546.6 45.5002C546.6 45.5669 546.6 45.6335 546.6 45.7002C546.6 45.7669 546.6 45.8002 546.6 45.8002C546.6 47.1002 545.9 48.2002 544.9 49.0002C544.5 49.3002 544 49.5002 543.5 49.6002C543 49.5002 542.5 49.3002 542.1 49.0002C541.1 48.2002 540.4 47.1002 540.4 45.8002C540.4 45.8002 540.4 45.7669 540.4 45.7002C540.4 45.6335 540.4 45.5669 540.4 45.5002C540.4 45.5002 540.433 45.4669 540.5 45.4002C540.5 45.3335 540.5 45.3002 540.5 45.3002C540.5 45.2335 540.5 45.1669 540.5 45.1002C540.567 45.1002 540.6 45.0669 540.6 45.0002C540.6 44.9335 540.633 44.8335 540.7 44.7002C540.7 44.7002 540.733 44.7002 540.8 44.7002C540.9 44.4002 541.1 44.2002 541.4 44.1002C541.467 44.0335 541.533 44.0002 541.6 44.0002C541.667 43.9335 541.767 43.9002 541.9 43.9002C542.4 43.7002 542.9 43.7002 543.5 43.7002C544.1 43.7002 544.6 43.7002 545.1 43.9002ZM600.1 102.1C600.1 102.234 600.067 102.334 600 102.4C600 102.467 599.967 102.534 599.9 102.6C599.8 102.9 599.6 103.1 599.3 103.2C599.3 103.267 599.3 103.3 599.3 103.3C599.167 103.367 599.067 103.4 599 103.4C598.933 103.4 598.9 103.434 598.9 103.5C598.833 103.5 598.767 103.5 598.7 103.5C598.7 103.5 598.667 103.5 598.6 103.5C598.533 103.567 598.5 103.6 598.5 103.6C598.433 103.6 598.367 103.6 598.3 103.6C598.233 103.6 598.2 103.6 598.2 103.6C596.9 103.6 595.8 102.9 595 101.9C594.7 101.5 594.5 101 594.4 100.5C594.5 100 594.7 99.5002 595 99.1002C595.8 98.1002 596.9 97.4002 598.2 97.4002C598.2 97.4002 598.233 97.4002 598.3 97.4002C598.367 97.4002 598.433 97.4002 598.5 97.4002C598.5 97.4002 598.533 97.4335 598.6 97.5002C598.667 97.5002 598.7 97.5002 598.7 97.5002C598.767 97.5002 598.833 97.5002 598.9 97.5002C598.9 97.5669 598.933 97.6002 599 97.6002C599.067 97.6002 599.167 97.6335 599.3 97.7002C599.3 97.7002 599.3 97.7335 599.3 97.8002C599.6 97.9002 599.8 98.1002 599.9 98.4002C599.967 98.4669 600 98.5335 600 98.6002C600.067 98.6669 600.1 98.7669 600.1 98.9002C600.3 99.4002 600.3 99.9002 600.3 100.5C600.3 101.1 600.3 101.6 600.1 102.1ZM541.9 157.1C541.767 157.1 541.667 157.067 541.6 157C541.533 157 541.467 156.967 541.4 156.9C541.1 156.8 540.9 156.6 540.8 156.3C540.733 156.3 540.7 156.3 540.7 156.3C540.633 156.167 540.6 156.067 540.6 156C540.6 155.934 540.567 155.9 540.5 155.9C540.5 155.834 540.5 155.767 540.5 155.7C540.5 155.7 540.5 155.667 540.5 155.6C540.433 155.534 540.4 155.5 540.4 155.5C540.4 155.434 540.4 155.367 540.4 155.3C540.4 155.234 540.4 155.2 540.4 155.2C540.4 153.9 541.1 152.8 542.1 152C542.5 151.7 543 151.5 543.5 151.4C544 151.5 544.5 151.7 544.9 152C545.9 152.8 546.6 153.9 546.6 155.2C546.6 155.2 546.6 155.234 546.6 155.3C546.6 155.367 546.6 155.434 546.6 155.5C546.6 155.5 546.567 155.534 546.5 155.6C546.5 155.667 546.5 155.7 546.5 155.7C546.5 155.767 546.5 155.834 546.5 155.9C546.433 155.9 546.4 155.934 546.4 156C546.4 156.067 546.367 156.167 546.3 156.3C546.3 156.3 546.267 156.3 546.2 156.3C546.1 156.6 545.9 156.8 545.6 156.9C545.533 156.967 545.467 157 545.4 157C545.333 157.067 545.233 157.1 545.1 157.1C544.6 157.3 544.1 157.3 543.5 157.3C542.9 157.3 542.4 157.3 541.9 157.1ZM486.9 98.9002C486.9 98.7669 486.933 98.6669 487 98.6002C487 98.5335 487.033 98.4669 487.1 98.4002C487.2 98.1002 487.4 97.9002 487.7 97.8002C487.7 97.7335 487.7 97.7002 487.7 97.7002C487.833 97.6335 487.933 97.6002 488 97.6002C488.067 97.6002 488.1 97.5669 488.1 97.5002C488.167 97.5002 488.233 97.5002 488.3 97.5002C488.3 97.5002 488.333 97.5002 488.4 97.5002C488.467 97.4335 488.5 97.4002 488.5 97.4002C488.567 97.4002 488.633 97.4002 488.7 97.4002C488.767 97.4002 488.8 97.4002 488.8 97.4002C490.1 97.4002 491.2 98.1002 492 99.1002C492.3 99.5002 492.5 100 492.6 100.5C492.5 101 492.3 101.5 492 101.9C491.2 102.9 490.1 103.6 488.8 103.6C488.8 103.6 488.767 103.6 488.7 103.6C488.633 103.6 488.567 103.6 488.5 103.6C488.5 103.6 488.467 103.567 488.4 103.5C488.333 103.5 488.3 103.5 488.3 103.5C488.233 103.5 488.167 103.5 488.1 103.5C488.1 103.434 488.067 103.4 488 103.4C487.933 103.4 487.833 103.367 487.7 103.3C487.7 103.3 487.7 103.267 487.7 103.2C487.4 103.1 487.2 102.9 487.1 102.6C487.033 102.534 487 102.467 487 102.4C486.933 102.334 486.9 102.234 486.9 102.1C486.7 101.6 486.7 101.1 486.7 100.5C486.7 99.9002 486.7 99.4002 486.9 98.9002ZM543.3 47.8002C543.3 47.8002 543.267 47.8002 543.2 47.8002C543.2 47.8002 543.233 47.8002 543.3 47.8002ZM490.8 100.7C490.8 100.7 490.8 100.734 490.8 100.8C490.8 100.8 490.8 100.767 490.8 100.7ZM543.7 153.2C543.7 153.2 543.733 153.2 543.8 153.2C543.8 153.2 543.767 153.2 543.7 153.2ZM596.2 100.3C596.2 100.3 596.2 100.267 596.2 100.2C596.2 100.2 596.2 100.234 596.2 100.3ZM543.8 47.8002C543.733 47.8002 543.7 47.8002 543.7 47.8002C543.767 47.8002 543.8 47.8002 543.8 47.8002ZM490.8 100.2C490.8 100.267 490.8 100.3 490.8 100.3C490.8 100.234 490.8 100.2 490.8 100.2ZM543.2 153.2C543.267 153.2 543.3 153.2 543.3 153.2C543.233 153.2 543.2 153.2 543.2 153.2ZM596.2 100.8C596.2 100.734 596.2 100.7 596.2 100.7C596.2 100.767 596.2 100.8 596.2 100.8Z" fill="#4A7C59"/>
<path fill-rule="evenodd" clip-rule="evenodd" d="M118.8 505.5C120.1 509.8 119.9 513.8 118.6 517.5C122.3 516.2 126.3 516 130.5 517.3C137.2 519.3 141.3 526.9 142.6 533.6C141.3 540.2 137.2 547.8 130.5 549.9C126.3 551.2 122.3 550.9 118.6 549.7C119.9 553.4 120.1 557.4 118.8 561.6C116.8 568.3 109.2 572.3 102.5 573.7C95.7999 572.3 88.1999 568.3 86.1999 561.6C84.8999 557.4 85.0999 553.4 86.3999 549.7C82.6999 550.9 78.6999 551.2 74.4999 549.9C67.7999 547.8 63.6999 540.2 62.3999 533.6C63.6999 526.9 67.7999 519.3 74.4999 517.3C78.6999 516 82.6999 516.2 86.3999 517.5C85.0999 513.8 84.8999 509.8 86.1999 505.5C88.1999 498.9 95.7999 494.8 102.5 493.5C109.2 494.8 116.8 498.9 118.8 505.5ZM113 508.1C111.7 503.4 107.3 500.3 102.5 498.8C97.6999 500.3 93.2999 503.4 91.9999 508.1C89.4999 517.2 95.1999 524.8 102.5 530.4C109.8 524.8 115.5 517.2 113 508.1ZM77.0999 523.1C72.2999 524.4 69.2999 528.8 67.6999 533.6C69.2999 538.4 72.2999 542.8 77.0999 544.1C86.0999 546.5 93.6999 540.9 99.2999 533.6C93.6999 526.3 86.0999 520.6 77.0999 523.1ZM91.9999 559C93.2999 563.8 97.6999 566.8 102.5 568.4C107.3 566.8 111.7 563.8 113 559C115.5 550 109.8 542.4 102.5 536.8C95.1999 542.4 89.4999 550 91.9999 559ZM127.9 544.1C132.7 542.8 135.7 538.4 137.3 533.6C135.7 528.8 132.7 524.4 127.9 523.1C118.9 520.6 111.3 526.3 105.7 533.6C111.3 540.9 118.9 546.5 127.9 544.1ZM105.8 510.2C107.2 513.8 104.9 518.1 102.5 520.9C100.1 518.1 97.7999 513.8 99.1999 510.2C99.7999 508.6 101 507.3 102.5 506.4C104 507.3 105.2 508.6 105.8 510.2ZM79.0999 530.3C82.6999 528.9 86.9999 531.2 89.7999 533.6C86.9999 536 82.6999 538.3 79.0999 536.9C77.4999 536.3 76.2999 535.1 75.3999 533.6C76.2999 532.1 77.4999 530.9 79.0999 530.3ZM99.1999 557C97.7999 553.4 100.1 549 102.5 546.3C104.9 549 107.2 553.4 105.8 557C105.2 558.6 104 559.8 102.5 560.7C101 559.8 99.7999 558.6 99.1999 557ZM125.9 536.9C122.3 538.3 118 536 115.2 533.6C118 531.2 122.3 528.9 125.9 530.3C127.5 530.9 128.7 532.1 129.6 533.6C128.7 535.1 127.5 536.3 125.9 536.9Z" fill="#C17B2A"/>
<path fill-rule="evenodd" clip-rule="evenodd" d="M109.7 475C112.2 478.9 112.8 484 108.6 487C106.8 488.3 104.7 489 102.5 489.5C100.3 489 98.2 488.3 96.4 487C92.2 484 92.8 478.9 95.3 475C97.1 472.4 99.7 470.4 102.5 470.1C105.3 470.4 107.9 472.4 109.7 475ZM161.1 540.8C157.2 543.3 152.1 543.9 149.1 539.7C147.8 537.9 147.1 535.8 146.6 533.6C147.1 531.4 147.8 529.3 149.1 527.5C152.1 523.3 157.2 523.9 161.1 526.4C163.7 528.2 165.7 530.8 166 533.6C165.7 536.4 163.7 539 161.1 540.8ZM95.3 592.2C92.8 588.2 92.2 583.2 96.4 580.2C98.2 578.9 100.3 578.1 102.5 577.7C104.7 578.1 106.8 578.9 108.6 580.2C112.8 583.2 112.2 588.2 109.7 592.2C107.9 594.8 105.3 596.8 102.5 597.1C99.7 596.8 97.1 594.8 95.3 592.2ZM43.9 526.4C47.8 523.9 52.9 523.3 55.9 527.5C57.2 529.3 57.9 531.4 58.4 533.6C57.9 535.8 57.2 537.9 55.9 539.7C52.9 543.9 47.8 543.3 43.9 540.8C41.3 539 39.3 536.4 39 533.6C39.3 530.8 41.3 528.2 43.9 526.4ZM106.2 477C104.9 475.2 103.7 474.4 102.5 474.3C101.3 474.4 100.1 475.2 98.8 477C95.8 481.8 98.4 484.1 102.5 485.1C106.6 484.1 109.2 481.8 106.2 477ZM159.1 537.3C160.9 536 161.7 534.8 161.8 533.6C161.7 532.4 160.9 531.1 159.1 529.9C154.2 526.9 152 529.5 151 533.6C152 537.7 154.2 540.3 159.1 537.3ZM98.8 590.2C100.1 591.9 101.3 592.8 102.5 592.9C103.7 592.8 104.9 591.9 106.2 590.2C109.2 585.3 106.6 583.1 102.5 582C98.4 583.1 95.8 585.3 98.8 590.2ZM45.9 529.9C44.1 531.1 43.3 532.4 43.2 533.6C43.3 534.8 44.1 536 45.9 537.3C50.8 540.3 53 537.7 54 533.6C53 529.5 50.8 526.9 45.9 529.9Z" fill="#4A7C59"/>
<path fill-rule="evenodd" clip-rule="evenodd" d="M104.1 477C104.233 477 104.333 477.033 104.4 477.1C104.467 477.1 104.533 477.133 104.6 477.2C104.9 477.3 105.1 477.5 105.2 477.8C105.267 477.8 105.3 477.8 105.3 477.8C105.367 477.867 105.4 477.967 105.4 478.1C105.4 478.1 105.433 478.133 105.5 478.2C105.5 478.267 105.5 478.333 105.5 478.4C105.5 478.4 105.5 478.433 105.5 478.5C105.567 478.5 105.6 478.533 105.6 478.6C105.6 478.667 105.6 478.733 105.6 478.8C105.6 478.867 105.6 478.9 105.6 478.9C105.6 480.2 104.9 481.3 103.9 482.1C103.5 482.4 103 482.6 102.5 482.7C102 482.6 101.5 482.4 101.1 482.1C100.1 481.3 99.4 480.2 99.4 478.9C99.4 478.9 99.4 478.867 99.4 478.8C99.4 478.733 99.4 478.667 99.4 478.6C99.4 478.533 99.4333 478.5 99.5 478.5C99.5 478.433 99.5 478.4 99.5 478.4C99.5 478.333 99.5 478.267 99.5 478.2C99.5666 478.133 99.5999 478.1 99.5999 478.1C99.5999 477.967 99.6333 477.867 99.6999 477.8C99.6999 477.8 99.7333 477.8 99.8 477.8C99.9 477.5 100.1 477.3 100.4 477.2C100.467 477.133 100.533 477.1 100.6 477.1C100.667 477.033 100.767 477 100.9 477C101.4 476.8 101.9 476.7 102.5 476.8C103.1 476.7 103.6 476.8 104.1 477ZM159.1 535.2C159.1 535.267 159.067 535.367 159 535.5C159 535.567 158.967 535.633 158.9 535.7C158.8 535.9 158.6 536.2 158.3 536.3C158.167 536.367 158.067 536.433 158 536.5C157.933 536.5 157.9 536.5 157.9 536.5C157.833 536.567 157.767 536.6 157.7 536.6C157.7 536.6 157.667 536.6 157.6 536.6C157.533 536.6 157.5 536.633 157.5 536.7C157.433 536.7 157.367 536.7 157.3 536.7C157.233 536.7 157.2 536.7 157.2 536.7C155.9 536.7 154.8 536 154 535C153.7 534.6 153.5 534.1 153.4 533.6C153.5 533.1 153.7 532.6 154 532.2C154.8 531.2 155.9 530.5 157.2 530.5C157.2 530.5 157.233 530.5 157.3 530.5C157.367 530.5 157.433 530.5 157.5 530.5C157.5 530.5 157.533 530.5 157.6 530.5C157.667 530.5 157.7 530.533 157.7 530.6C157.767 530.6 157.833 530.6 157.9 530.6C157.9 530.6 157.933 530.633 158 530.7C158.067 530.7 158.167 530.733 158.3 530.8C158.6 531 158.8 531.2 158.9 531.5C158.967 531.567 159 531.633 159 531.7C159.067 531.767 159.1 531.867 159.1 532C159.3 532.5 159.3 533 159.3 533.6C159.3 534.2 159.3 534.7 159.1 535.2ZM100.9 590.2C100.767 590.133 100.667 590.1 100.6 590.1C100.533 590.033 100.467 590 100.4 590C100.1 589.9 99.9 589.7 99.8 589.4C99.7333 589.4 99.6999 589.4 99.6999 589.4C99.6333 589.267 99.5999 589.167 99.5999 589.1C99.5999 589.033 99.5666 589 99.5 589C99.5 588.933 99.5 588.867 99.5 588.8C99.5 588.8 99.5 588.767 99.5 588.7C99.4333 588.633 99.4 588.567 99.4 588.5C99.4 588.433 99.4 588.4 99.4 588.4C99.4 588.333 99.4 588.3 99.4 588.3C99.4 587 100.1 585.9 101.1 585.1C101.5 584.8 102 584.6 102.5 584.5C103 584.6 103.5 584.8 103.9 585.1C104.9 585.9 105.6 587 105.6 588.3C105.6 588.3 105.6 588.333 105.6 588.4C105.6 588.4 105.6 588.433 105.6 588.5C105.6 588.567 105.567 588.633 105.5 588.7C105.5 588.767 105.5 588.8 105.5 588.8C105.5 588.867 105.5 588.933 105.5 589C105.433 589 105.4 589.033 105.4 589.1C105.4 589.167 105.367 589.267 105.3 589.4C105.3 589.4 105.267 589.4 105.2 589.4C105.1 589.7 104.9 589.9 104.6 590C104.533 590 104.467 590.033 104.4 590.1C104.333 590.1 104.233 590.133 104.1 590.2C103.6 590.4 103.1 590.4 102.5 590.4C101.9 590.4 101.4 590.4 100.9 590.2ZM45.9 532C45.9 531.867 45.9333 531.767 46 531.7C46 531.633 46.0333 531.567 46.0999 531.5C46.1999 531.2 46.4 531 46.7 530.8C46.8333 530.733 46.9333 530.7 47 530.7C47.0666 530.633 47.0999 530.6 47.0999 530.6C47.1666 530.6 47.2333 530.6 47.2999 530.6C47.2999 530.533 47.3333 530.5 47.4 530.5C47.4666 530.5 47.5 530.5 47.5 530.5C47.5666 530.5 47.6333 530.5 47.7 530.5C47.7666 530.5 47.7999 530.5 47.7999 530.5C49.0999 530.5 50.2 531.2 51 532.2C51.3 532.6 51.4999 533.1 51.5999 533.6C51.4999 534.1 51.3 534.6 51 535C50.2 536 49.0999 536.7 47.7999 536.7C47.7999 536.7 47.7666 536.7 47.7 536.7C47.6333 536.7 47.5666 536.7 47.5 536.7C47.5 536.633 47.4666 536.6 47.4 536.6C47.3333 536.6 47.2999 536.6 47.2999 536.6C47.2333 536.6 47.1666 536.567 47.0999 536.5C47.0999 536.5 47.0666 536.5 47 536.5C46.9333 536.433 46.8333 536.367 46.7 536.3C46.4 536.2 46.1999 535.9 46.0999 535.7C46.0333 535.633 46 535.567 46 535.5C45.9333 535.367 45.9 535.267 45.9 535.2C45.7 534.7 45.7 534.2 45.7 533.6C45.7 533 45.7 532.5 45.9 532ZM102.3 480.9C102.3 480.9 102.267 480.9 102.2 480.9C102.2 480.9 102.233 480.9 102.3 480.9ZM102.7 586.2C102.7 586.267 102.733 586.3 102.8 586.3C102.8 586.3 102.767 586.267 102.7 586.2ZM155.2 533.4C155.2 533.4 155.2 533.367 155.2 533.3C155.2 533.3 155.2 533.333 155.2 533.4ZM102.8 480.9C102.733 480.9 102.7 480.9 102.7 480.9C102.767 480.9 102.8 480.9 102.8 480.9ZM49.7999 533.3C49.7999 533.367 49.7999 533.4 49.7999 533.4C49.7999 533.333 49.7999 533.3 49.7999 533.3ZM102.2 586.3C102.267 586.3 102.3 586.267 102.3 586.2C102.233 586.267 102.2 586.3 102.2 586.3ZM102.4 480.7C102.333 480.7 102.233 480.733 102.1 480.8C102.233 480.8 102.333 480.767 102.4 480.7ZM155.4 533.5C155.333 533.367 155.3 533.267 155.3 533.2C155.3 533.333 155.333 533.433 155.4 533.5ZM102.9 480.8C102.767 480.733 102.667 480.7 102.6 480.7C102.667 480.767 102.767 480.8 102.9 480.8ZM49.7 533.2C49.7 533.267 49.6666 533.367 49.5999 533.5C49.6666 533.433 49.7 533.333 49.7 533.2Z" fill="#4A7C59"/>
<path fill-rule="evenodd" clip-rule="evenodd" d="M303.2 495.4C305 501.4 304.7 506.9 302.9 512.1C308.1 510.3 313.6 510 319.6 511.8C328.8 514.6 334.5 525.2 336.4 534.5C334.5 543.8 328.8 554.4 319.6 557.2C313.6 559 308.1 558.7 302.9 556.9C304.7 562.1 305 567.6 303.2 573.6C300.4 582.8 289.8 588.5 280.5 590.4C271.2 588.5 260.6 582.8 257.8 573.6C256 567.6 256.3 562.1 258.1 556.9C252.9 558.7 247.4 559 241.4 557.2C232.2 554.4 226.5 543.8 224.6 534.5C226.5 525.2 232.2 514.6 241.4 511.8C247.4 510 252.9 510.3 258.1 512.1C256.3 506.9 256 501.4 257.8 495.4C260.6 486.2 271.2 480.5 280.5 478.6C289.8 480.5 300.4 486.2 303.2 495.4ZM295.1 499C293.3 492.4 287.2 488.2 280.5 486C273.8 488.2 267.7 492.4 265.9 499C262.4 511.7 270.3 522.2 280.5 530C290.7 522.2 298.6 511.7 295.1 499ZM245 519.9C238.4 521.7 234.2 527.8 232 534.5C234.2 541.2 238.4 547.3 245 549.1C257.7 552.6 268.2 544.7 276 534.5C268.2 524.3 257.7 516.4 245 519.9ZM265.9 570C267.7 576.6 273.8 580.8 280.5 583C287.2 580.8 293.3 576.6 295.1 570C298.6 557.3 290.7 546.8 280.5 539C270.3 546.8 262.4 557.3 265.9 570ZM316 549.1C322.6 547.3 326.8 541.2 329 534.5C326.8 527.8 322.6 521.7 316 519.9C303.3 516.4 292.8 524.3 285 534.5C292.8 544.7 303.3 552.6 316 549.1ZM285.1 501.9C287.1 506.9 283.8 513 280.5 516.8C277.2 513 273.9 506.9 275.9 501.9C276.7 499.6 278.4 497.9 280.5 496.7C282.6 497.9 284.3 499.6 285.1 501.9ZM247.9 529.9C252.9 527.9 259 531.2 262.8 534.5C259 537.8 252.9 541.1 247.9 539.1C245.6 538.3 243.9 536.6 242.7 534.5C243.9 532.4 245.6 530.7 247.9 529.9ZM275.9 567.1C273.9 562.1 277.2 556 280.5 552.2C283.8 556 287.1 562.1 285.1 567.1C284.3 569.4 282.6 571.1 280.5 572.3C278.4 571.1 276.7 569.4 275.9 567.1ZM313.1 539.1C308.1 541.1 302 537.8 298.2 534.5C302 531.2 308.1 527.9 313.1 529.9C315.4 530.7 317.1 532.4 318.3 534.5C317.1 536.6 315.4 538.3 313.1 539.1Z" fill="#C17B2A"/>
<path fill-rule="evenodd" clip-rule="evenodd" d="M290.6 452.8C294 458.3 294.9 465.4 289 469.6C286.5 471.4 283.6 472.4 280.5 473C277.4 472.4 274.5 471.4 272 469.6C266.1 465.4 267 458.3 270.4 452.8C273 449.2 276.6 446.4 280.5 446C284.4 446.4 288 449.2 290.6 452.8ZM362.2 544.6C356.7 548 349.6 548.9 345.4 543C343.6 540.5 342.6 537.6 342 534.5C342.6 531.4 343.6 528.5 345.4 526C349.6 520.1 356.7 521 362.2 524.4C365.8 527 368.6 530.6 369 534.5C368.6 538.4 365.8 542 362.2 544.6ZM270.4 616.2C267 610.7 266.1 603.6 272 599.4C274.5 597.6 277.4 596.6 280.5 596C283.6 596.6 286.5 597.6 289 599.4C294.9 603.6 294 610.7 290.6 616.2C288 619.8 284.4 622.6 280.5 623C276.6 622.6 273 619.8 270.4 616.2ZM198.8 524.4C204.3 521 211.4 520.1 215.6 526C217.4 528.5 218.4 531.4 219 534.5C218.4 537.6 217.4 540.5 215.6 543C211.4 548.9 204.3 548 198.8 544.6C195.2 542 192.4 538.4 192 534.5C192.4 530.6 195.2 527 198.8 524.4ZM285.7 455.6C283.9 453.2 282.2 452 280.5 451.8C278.8 452 277.1 453.2 275.3 455.6C271.1 462.4 274.8 465.5 280.5 467C286.2 465.5 289.9 462.4 285.7 455.6ZM359.4 539.7C361.8 537.9 363 536.2 363.2 534.5C363 532.8 361.8 531.1 359.4 529.3C352.6 525.1 349.5 528.8 348 534.5C349.5 540.2 352.6 543.9 359.4 539.7ZM275.3 613.4C277.1 615.8 278.8 617 280.5 617.2C282.2 617 283.9 615.8 285.7 613.4C289.9 606.6 286.2 603.5 280.5 602C274.8 603.5 271.1 606.6 275.3 613.4ZM201.6 529.3C199.2 531.1 198 532.8 197.8 534.5C198 536.2 199.2 537.9 201.6 539.7C208.4 543.9 211.5 540.2 213 534.5C211.5 528.8 208.4 525.1 201.6 529.3Z" fill="#4A7C59"/>
<path fill-rule="evenodd" clip-rule="evenodd" d="M282.7 455.6C282.9 455.667 283.067 455.733 283.2 455.8C283.267 455.8 283.333 455.833 283.4 455.9C283.8 456 284.1 456.3 284.3 456.7C284.433 456.833 284.533 457 284.6 457.2C284.6 457.2 284.6 457.233 284.6 457.3C284.667 457.367 284.7 457.433 284.7 457.5C284.7 457.567 284.7 457.633 284.7 457.7C284.767 457.767 284.8 457.833 284.8 457.9C284.8 457.967 284.8 458.067 284.8 458.2C284.8 458.2 284.8 458.233 284.8 458.3C284.8 460.1 283.8 461.6 282.4 462.7C281.9 463.1 281.2 463.4 280.5 463.5C279.8 463.4 279.1 463.1 278.6 462.7C277.2 461.6 276.2 460.1 276.2 458.3C276.2 458.233 276.2 458.2 276.2 458.2C276.2 458.067 276.2 457.967 276.2 457.9C276.2 457.833 276.233 457.767 276.3 457.7C276.3 457.633 276.3 457.567 276.3 457.5C276.3 457.433 276.333 457.367 276.4 457.3C276.4 457.233 276.4 457.2 276.4 457.2C276.467 457 276.567 456.833 276.7 456.7C276.9 456.3 277.2 456 277.6 455.9C277.667 455.833 277.733 455.8 277.8 455.8C277.933 455.733 278.1 455.667 278.3 455.6C279 455.4 279.7 455.3 280.5 455.4C281.3 455.3 282 455.4 282.7 455.6ZM359.4 536.7C359.333 536.9 359.267 537.067 359.2 537.2C359.2 537.267 359.167 537.333 359.1 537.4C359 537.8 358.7 538.1 358.3 538.3C358.167 538.433 358 538.533 357.8 538.6C357.8 538.6 357.767 538.6 357.7 538.6C357.633 538.667 357.567 538.7 357.5 538.7C357.433 538.7 357.367 538.7 357.3 538.7C357.233 538.767 357.167 538.8 357.1 538.8C357.033 538.8 356.933 538.8 356.8 538.8C356.8 538.8 356.767 538.8 356.7 538.8C354.9 538.8 353.4 537.8 352.3 536.4C351.9 535.9 351.6 535.2 351.5 534.5C351.6 533.8 351.9 533.1 352.3 532.6C353.4 531.2 354.9 530.2 356.7 530.2C356.767 530.2 356.8 530.2 356.8 530.2C356.933 530.2 357.033 530.2 357.1 530.2C357.167 530.2 357.233 530.233 357.3 530.3C357.367 530.3 357.433 530.3 357.5 530.3C357.567 530.3 357.633 530.333 357.7 530.4C357.767 530.4 357.8 530.4 357.8 530.4C358 530.467 358.167 530.567 358.3 530.7C358.7 530.9 359 531.2 359.1 531.6C359.167 531.667 359.2 531.733 359.2 531.8C359.267 531.933 359.333 532.1 359.4 532.3C359.6 533 359.7 533.7 359.6 534.5C359.7 535.3 359.6 536 359.4 536.7ZM278.3 613.4C278.1 613.333 277.933 613.267 277.8 613.2C277.733 613.2 277.667 613.167 277.6 613.1C277.2 613 276.9 612.7 276.7 612.3C276.567 612.167 276.467 612 276.4 611.8C276.4 611.8 276.4 611.767 276.4 611.7C276.333 611.633 276.3 611.567 276.3 611.5C276.3 611.433 276.3 611.367 276.3 611.3C276.233 611.233 276.2 611.167 276.2 611.1C276.2 611.033 276.2 610.933 276.2 610.8C276.2 610.8 276.2 610.767 276.2 610.7C276.2 608.9 277.2 607.4 278.6 606.3C279.1 605.9 279.8 605.6 280.5 605.5C281.2 605.6 281.9 605.9 282.4 606.3C283.8 607.4 284.8 608.9 284.8 610.7C284.8 610.767 284.8 610.8 284.8 610.8C284.8 610.933 284.8 611.033 284.8 611.1C284.8 611.167 284.767 611.233 284.7 611.3C284.7 611.367 284.7 611.433 284.7 611.5C284.7 611.567 284.667 611.633 284.6 611.7C284.6 611.767 284.6 611.8 284.6 611.8C284.533 612 284.433 612.167 284.3 612.3C284.1 612.7 283.8 613 283.4 613.1C283.333 613.167 283.267 613.2 283.2 613.2C283.067 613.267 282.9 613.333 282.7 613.4C282 613.6 281.3 613.7 280.5 613.6C279.7 613.7 279 613.6 278.3 613.4ZM201.6 532.3C201.667 532.1 201.733 531.933 201.8 531.8C201.8 531.733 201.833 531.667 201.9 531.6C202 531.2 202.3 530.9 202.7 530.7C202.833 530.567 203 530.467 203.2 530.4C203.2 530.4 203.233 530.4 203.3 530.4C203.367 530.333 203.433 530.3 203.5 530.3C203.567 530.3 203.633 530.3 203.7 530.3C203.767 530.233 203.833 530.2 203.9 530.2C203.967 530.2 204.067 530.2 204.2 530.2C204.2 530.2 204.233 530.2 204.3 530.2C206.1 530.2 207.6 531.2 208.7 532.6C209.1 533.1 209.4 533.8 209.5 534.5C209.4 535.2 209.1 535.9 208.7 536.4C207.6 537.8 206.1 538.8 204.3 538.8C204.233 538.8 204.2 538.8 204.2 538.8C204.067 538.8 203.967 538.8 203.9 538.8C203.833 538.8 203.767 538.767 203.7 538.7C203.633 538.7 203.567 538.7 203.5 538.7C203.433 538.7 203.367 538.667 203.3 538.6C203.233 538.6 203.2 538.6 203.2 538.6C203 538.533 202.833 538.433 202.7 538.3C202.3 538.1 202 537.8 201.9 537.4C201.833 537.333 201.8 537.267 201.8 537.2C201.733 537.067 201.667 536.9 201.6 536.7C201.4 536 201.3 535.3 201.4 534.5C201.3 533.7 201.4 533 201.6 532.3ZM280.2 461.1C280.2 461.1 280.133 461.067 280 461C280.067 461 280.1 461.033 280.1 461.1C280.1 461.1 280.133 461.1 280.2 461.1ZM207.1 534.8C207.1 534.8 207.067 534.867 207 535C207 534.933 207.033 534.9 207.1 534.9C207.1 534.9 207.1 534.867 207.1 534.8ZM280.8 607.9C280.8 607.9 280.867 607.933 281 608C280.933 608 280.9 607.967 280.9 607.9C280.9 607.9 280.867 607.9 280.8 607.9ZM353.9 534.2C353.9 534.2 353.933 534.133 354 534C354 534.067 353.967 534.1 353.9 534.1C353.9 534.1 353.9 534.133 353.9 534.2ZM280.9 461.1C280.9 461.033 280.933 461 281 461C280.867 461.067 280.8 461.1 280.8 461.1C280.867 461.1 280.9 461.1 280.9 461.1ZM207.1 534.1C207.033 534.1 207 534.067 207 534C207.067 534.133 207.1 534.2 207.1 534.2C207.1 534.133 207.1 534.1 207.1 534.1ZM280.1 607.9C280.1 607.967 280.067 608 280 608C280.133 607.933 280.2 607.9 280.2 607.9C280.133 607.9 280.1 607.9 280.1 607.9ZM353.9 534.9C353.967 534.9 354 534.933 354 535C353.933 534.867 353.9 534.8 353.9 534.8C353.9 534.867 353.9 534.9 353.9 534.9ZM280.4 460.7C280.267 460.767 280.1 460.833 279.9 460.9C280.1 460.9 280.267 460.833 280.4 460.7ZM206.7 534.6C206.767 534.733 206.833 534.9 206.9 535.1C206.9 534.9 206.833 534.733 206.7 534.6ZM280.6 608.3C280.733 608.233 280.9 608.167 281.1 608.1C280.9 608.1 280.733 608.167 280.6 608.3ZM354.3 534.4C354.233 534.267 354.167 534.1 354.1 533.9C354.1 534.1 354.167 534.267 354.3 534.4ZM281.1 460.9C280.9 460.833 280.733 460.767 280.6 460.7C280.733 460.833 280.9 460.9 281.1 460.9ZM206.9 533.9C206.833 534.1 206.767 534.267 206.7 534.4C206.833 534.267 206.9 534.1 206.9 533.9ZM279.9 608.1C280.1 608.167 280.267 608.233 280.4 608.3C280.267 608.167 280.1 608.1 279.9 608.1ZM354.1 535.1C354.167 534.9 354.233 534.733 354.3 534.6C354.167 534.733 354.1 534.9 354.1 535.1Z" fill="#4A7C59"/>
</svg>
