<svg width="511" height="214" viewBox="0 0 511 214" fill="none" xmlns="http://www.w3.org/2000/svg">
<path d="M185.485 211.551C182.39 211.551 179.085 211.059 175.568 210.074C172.192 209.23 168.605 207.683 164.807 205.432C162.697 204.307 161.29 202.689 160.587 200.579C159.743 198.61 159.532 196.57 159.954 194.46C160.235 192.35 161.009 190.592 162.275 189.185C163.4 187.778 164.807 187.075 166.495 187.075C167.48 187.075 168.675 187.356 170.082 187.919C171.489 188.622 173.247 189.326 175.357 190.029C177.608 190.732 180.351 191.084 183.586 191.084C191.463 191.084 198.426 188.974 204.475 184.754C210.524 180.675 215.236 175.048 218.612 167.874C222.129 160.841 223.887 153.034 223.887 144.453C223.887 139.108 223.254 133.622 221.988 127.995C220.722 122.368 219.104 116.109 217.135 109.216C216.432 106.825 216.432 104.715 217.135 102.886C217.979 101.057 219.175 99.6506 220.722 98.6659C222.41 97.6812 224.168 97.1889 225.997 97.1889C227.826 97.1889 229.373 97.6812 230.639 98.6659C232.046 99.5099 233.101 100.917 233.804 102.886C234.507 105.84 235.14 108.935 235.703 112.17C236.406 115.265 237.25 119.274 238.235 124.197C239.501 129.964 241.47 134.466 244.143 137.701C246.816 140.796 249.699 142.976 252.794 144.242C256.029 145.508 258.983 146.141 261.656 146.141L265.454 149.095V164.92L261.656 167.452C257.577 167.452 253.286 166.397 248.785 164.287C244.424 162.177 241.048 159.082 238.657 155.003C237.532 165.553 234.507 175.048 229.584 183.488C224.661 192.069 218.401 198.891 210.805 203.955C203.209 209.019 194.769 211.551 185.485 211.551Z" fill="#0D6E6E"/>
<path d="M400.286 167.452C394.66 167.452 389.455 166.186 384.672 163.654C380.03 161.122 375.951 157.676 372.434 153.315C369.058 148.954 366.386 143.961 364.416 138.334C362.447 132.567 361.392 126.518 361.251 120.188L373.489 115.335C373.63 121.384 374.826 126.729 377.076 131.371C379.468 136.013 382.633 139.67 386.571 142.343C390.651 144.875 395.222 146.141 400.286 146.141L404.084 149.517V164.92L400.286 167.452ZM261.659 167.452L257.861 164.92V149.517L261.659 146.141C272.069 146.141 281.986 144.805 291.41 142.132C300.835 139.459 309.838 136.083 318.418 132.004C327.14 127.925 335.439 123.775 343.316 119.555C351.194 115.194 358.719 111.396 365.893 108.161C360.407 107.317 354.781 105.91 349.013 103.941C343.387 101.972 337.76 99.9319 332.133 97.8219C326.647 95.7119 321.443 93.8832 316.519 92.3359C311.596 90.7886 307.306 90.0149 303.648 90.0149C299.288 90.0149 296.123 91.0699 294.153 93.1799C292.325 95.2899 291.41 97.9626 291.41 101.198C291.41 102.183 291.481 103.308 291.621 104.574C291.903 105.699 292.184 106.825 292.465 107.95C293.028 109.357 292.887 110.693 292.043 111.959C291.199 113.225 290.004 114.28 288.456 115.124C287.05 115.827 285.502 116.179 283.814 116.179C282.126 116.179 280.579 115.757 279.172 114.913C277.766 113.928 276.851 112.381 276.429 110.271C276.007 108.302 275.656 106.332 275.374 104.363C275.093 102.253 274.952 100.284 274.952 98.4549C274.952 93.3909 275.867 88.8192 277.695 84.7399C279.524 80.5199 282.337 77.2142 286.135 74.8229C289.933 72.2909 294.786 71.0249 300.694 71.0249C304.633 71.0249 309.134 71.7282 314.198 73.1349C319.403 74.5416 324.959 76.3702 330.867 78.6209C336.775 80.7309 342.894 82.9112 349.224 85.1619C355.554 87.2719 361.884 89.1006 368.214 90.6479C374.544 92.1952 380.593 93.0392 386.36 93.1799C387.626 93.1799 388.681 93.8129 389.525 95.0789C390.369 96.3449 391.002 97.8922 391.424 99.7209C391.846 101.55 391.987 103.519 391.846 105.629C391.706 107.598 391.284 109.427 390.58 111.115C390.018 112.803 389.103 113.999 387.837 114.702C378.413 119.063 369.691 123.705 361.673 128.628C353.655 133.411 345.848 138.123 338.252 142.765C330.797 147.407 323.201 151.627 315.464 155.425C307.728 159.082 299.499 162.036 290.777 164.287C282.056 166.397 272.35 167.452 261.659 167.452Z" fill="#0D6E6E"/>
<path d="M477.349 171.461C472.988 171.461 468.417 170.547 463.634 168.718C458.851 166.889 454.139 164.428 449.497 161.333C444.996 158.098 440.776 154.3 436.837 149.939C433.039 145.578 429.944 140.866 427.553 135.802L437.47 120.188C439.861 125.393 443.237 130.316 447.598 134.958C452.099 139.459 456.882 143.117 461.946 145.93C467.01 148.743 471.652 150.15 475.872 150.15C481.217 150.15 485.508 147.97 488.743 143.609C491.978 139.108 493.596 133.411 493.596 126.518C493.596 121.876 492.541 117.656 490.431 113.858C488.462 110.06 485.789 107.106 482.413 104.996C479.037 102.745 475.38 101.62 471.441 101.62C468.206 101.62 464.97 102.464 461.735 104.152C458.64 105.699 455.546 108.583 452.451 112.803C449.497 116.882 446.402 122.72 443.167 130.316C438.103 142.273 431.914 151.486 424.599 157.957C417.284 164.287 409.055 167.452 399.912 167.452L396.536 165.342V149.306L400.334 146.141C404.695 146.141 408.563 145.367 411.939 143.82C415.315 142.132 418.55 139.178 421.645 134.958C424.74 130.738 427.975 124.83 431.351 117.234C435.29 108.091 439.299 100.917 443.378 95.7119C447.598 90.5072 452.029 86.8499 456.671 84.7399C461.454 82.4892 466.518 81.3639 471.863 81.3639C478.896 81.3639 485.297 83.4036 491.064 87.4829C496.831 91.5622 501.473 97.0482 504.99 103.941C508.507 110.693 510.265 118.359 510.265 126.94C510.265 135.521 508.929 143.187 506.256 149.939C503.583 156.691 499.785 161.966 494.862 165.764C489.939 169.562 484.101 171.461 477.349 171.461Z" fill="#0D6E6E"/>
<path d="M77.226 169.773C65.9727 169.773 55.6337 168.577 46.209 166.186C36.7843 163.654 28.6257 160.207 21.733 155.847C14.8403 151.345 9.495 146.141 5.697 140.233C1.899 134.184 0 127.714 0 120.821C0 110.834 2.743 101.69 8.229 93.3908C13.8557 84.9508 21.3813 78.5505 30.806 74.1898C35.1667 72.2205 38.6833 71.2358 41.356 71.2358C43.044 71.2358 44.3803 71.7282 45.365 72.7128C46.4903 73.5568 47.4047 75.1042 48.108 77.3548C49.0927 80.0275 48.53 82.4892 46.42 84.7398C44.31 86.9905 41.6373 88.8895 38.402 90.4368C32.494 93.1095 27.7113 96.6965 24.054 101.198C20.3967 105.699 18.568 110.834 18.568 116.601C18.568 120.821 19.9747 124.83 22.788 128.628C25.742 132.285 29.8917 135.591 35.237 138.545C40.5823 141.358 46.842 143.609 54.016 145.297C61.3307 146.985 69.3487 147.829 78.07 147.829C91.2927 147.829 102.827 146.563 112.674 144.031C122.521 141.499 130.187 137.982 135.673 133.481C141.3 128.839 144.113 123.564 144.113 117.656C144.113 114.561 143.761 111.467 143.058 108.372C142.355 105.277 141.37 101.972 140.104 98.4548C139.401 96.0635 138.979 94.0238 138.838 92.3358C138.697 90.5072 139.049 88.9598 139.893 87.6938C140.878 86.2872 142.495 85.2322 144.746 84.5288C145.309 84.2475 145.871 84.1068 146.434 84.1068C146.997 83.9662 147.63 83.8958 148.333 83.8958C150.162 83.8958 151.779 84.6695 153.186 86.2168C154.733 87.7642 155.999 90.2258 156.984 93.6018C157.969 96.6965 158.883 100.354 159.727 104.574C160.712 108.653 161.204 113.155 161.204 118.078C161.204 126.096 159.164 133.27 155.085 139.6C151.006 145.93 145.238 151.345 137.783 155.847C130.328 160.348 121.466 163.794 111.197 166.186C100.928 168.577 89.6047 169.773 77.226 169.773Z" fill="#0D6E6E"/>
<path d="M71.318 203.89C72.7247 205.015 74.4127 205.578 76.382 205.578C79.6174 205.578 82.29 204.593 84.4 202.624C86.6507 200.654 87.776 197.771 87.776 193.973C87.776 192.003 87.354 190.104 86.51 188.276C85.8067 186.588 84.611 185.111 82.923 183.845C81.3757 182.719 79.336 182.157 76.804 182.157C74.272 182.157 72.0917 183.282 70.263 185.533C68.4343 187.924 67.52 190.878 67.52 194.395C67.52 196.223 67.8014 197.982 68.364 199.67C69.0674 201.358 70.052 202.764 71.318 203.89Z" fill="#0D6E6E"/>
<path d="M186.43 168.929C185.586 168.929 184.602 168.788 183.476 168.507C182.351 168.226 181.226 167.733 180.1 167.03C179.116 166.327 178.272 165.272 177.568 163.865C177.006 162.318 176.795 160.419 176.935 158.168C176.935 151.416 177.076 144.172 177.357 136.435C177.639 128.558 177.99 120.399 178.412 111.959C178.834 103.519 179.256 95.0087 179.678 86.428C180.1 77.7067 180.452 69.126 180.733 60.686C181.155 52.1053 181.366 43.806 181.366 35.788C181.507 27.77 181.366 20.174 180.944 13C180.804 9.48334 181.577 6.95134 183.265 5.40401C185.094 3.85668 187.134 3.08301 189.384 3.08301C192.62 3.08301 194.941 3.92701 196.347 5.61501C197.895 7.30301 198.739 9.34267 198.879 11.734C199.301 16.2353 199.442 22.3543 199.301 30.091C199.301 37.8277 199.09 46.4787 198.668 56.044C198.387 65.6093 198.035 75.456 197.613 85.584C197.191 95.712 196.699 105.559 196.136 115.124C195.714 124.549 195.363 133.129 195.081 140.866C194.941 148.462 194.87 154.511 194.87 159.012C194.87 162.388 194.237 164.92 192.971 166.608C191.705 168.155 189.525 168.929 186.43 168.929Z" fill="#0D6E6E"/>
<path d="M331.116 0C337.165 0 341.877 1.96933 345.253 5.908C348.77 9.84667 350.528 14.559 350.528 20.045C350.528 25.2497 348.84 29.6103 345.464 33.127C342.229 36.503 337.868 38.191 332.382 38.191C327.037 38.191 322.676 36.503 319.3 33.127C316.065 29.751 314.447 25.6717 314.447 20.889C314.447 16.1063 315.854 12.0973 318.667 8.862C321.621 5.486 325.489 3.798 330.272 3.798C331.397 3.798 332.312 4.22 333.015 5.06401C333.859 5.90801 334.351 6.96301 334.492 8.22901C334.633 9.35433 334.351 10.339 333.648 11.183C333.085 12.027 331.96 12.449 330.272 12.449C327.881 12.449 325.982 13.3633 324.575 15.192C323.309 16.88 322.676 18.6383 322.676 20.467C322.676 23.1397 323.59 25.32 325.419 27.008C327.248 28.5553 329.498 29.329 332.171 29.329C334.984 29.329 337.376 28.5553 339.345 27.008C341.314 25.32 342.299 22.999 342.299 20.045C342.299 17.2317 341.244 14.6997 339.134 12.449C337.165 10.0577 334.422 8.862 330.905 8.862C329.78 8.862 328.865 8.44 328.162 7.596C327.599 6.61134 327.318 5.55634 327.318 4.43101C327.318 3.30567 327.599 2.321 328.162 1.47701C328.865 0.492335 329.85 0 331.116 0Z" fill="#C17B2A"/>
<path d="M445.379 202.359C453.116 202.078 460.923 200.741 468.8 198.35C476.677 196.099 483.218 193.567 488.423 190.754C489.83 190.051 491.166 189.98 492.432 190.543C493.698 191.106 494.683 192.02 495.386 193.286C496.089 194.693 496.3 196.099 496.019 197.506C495.738 198.913 494.823 200.038 493.276 200.882C489.619 203.133 485.188 205.172 479.983 207.001C474.778 208.97 469.292 210.518 463.525 211.643C457.898 212.909 452.412 213.612 447.067 213.753C445.379 213.753 444.043 213.19 443.058 212.065C442.073 211.08 441.511 209.814 441.37 208.267C441.229 206.86 441.44 205.524 442.003 204.258C442.706 203.133 443.832 202.5 445.379 202.359Z" fill="#C17B2A"/>
</svg>
